<?xml version="1.0" standalone="no"?>
<!DOCTYPE svg PUBLIC "-//W3C//DTD SVG 20010904//EN"
 "http://www.w3.org/TR/2001/REC-SVG-20010904/DTD/svg10.dtd">
<svg version="1.0" xmlns="http://www.w3.org/2000/svg"
 width="700.000000pt" height="700.000000pt" viewBox="0 0 700.000000 700.000000"
 preserveAspectRatio="xMidYMid meet">
<metadata>
Created by potrace 1.14, written by Peter Selinger 2001-2017
</metadata>
<g transform="translate(0.000000,700.000000) scale(0.100000,-0.100000)"
fill="#000000" stroke="none">
<path d="M3377 6844 c-1 -1 -49 -4 -107 -8 -58 -3 -118 -8 -135 -10 -16 -3
-57 -7 -90 -11 -33 -4 -69 -9 -80 -11 -24 -5 -69 -13 -110 -20 -97 -16 -485
-125 -510 -143 -5 -4 -39 -18 -75 -31 -124 -43 -330 -147 -548 -275 -40 -23
-240 -165 -282 -199 -25 -21 -54 -44 -65 -53 -135 -107 -300 -272 -453 -450
-86 -101 -312 -426 -312 -449 0 -3 -8 -18 -19 -32 -70 -100 -233 -473 -287
-660 -13 -46 -26 -87 -28 -90 -14 -24 -82 -366 -92 -467 -3 -33 -8 -62 -9 -66
-7 -11 -19 -250 -19 -379 0 -225 28 -489 71 -684 8 -39 19 -87 23 -106 26
-117 99 -336 165 -495 75 -181 276 -549 308 -563 4 -2 7 -8 7 -14 0 -7 59 -91
107 -153 249 -317 509 -561 809 -759 57 -38 81 -53 169 -107 107 -66 376 -193
515 -244 65 -24 252 -85 275 -90 11 -2 65 -15 120 -29 55 -13 116 -27 135 -30
19 -4 44 -8 55 -10 69 -14 262 -37 353 -43 761 -51 1507 153 2124 579 114 79
121 84 217 162 418 340 748 776 968 1281 84 192 149 402 198 635 22 107 28
140 41 245 3 22 7 49 9 60 9 45 19 250 18 390 0 165 -7 275 -29 435 -21 160
-26 186 -70 365 -304 1226 -1287 2179 -2530 2454 -49 11 -107 22 -129 25 -23
4 -50 8 -60 10 -11 2 -45 7 -75 11 -30 4 -62 9 -70 10 -57 11 -493 27 -503 19z
m328 -2069 c313 -63 557 -196 748 -405 92 -101 201 -275 248 -395 14 -37 38
-110 45 -140 4 -16 8 -34 10 -40 38 -134 41 -408 5 -564 -57 -255 -170 -460
-352 -643 -167 -167 -355 -275 -579 -334 -125 -33 -179 -39 -335 -39 -215 0
-358 32 -555 123 -153 70 -339 218 -438 347 -25 33 -49 62 -52 65 -4 3 -28 41
-54 84 -89 147 -150 315 -173 479 -10 67 -10 295 -1 367 63 472 411 890 868
1043 68 23 189 50 265 60 43 6 314 0 350 -8z"/>
</g>
</svg>
